<?xml version="1.0" encoding="UTF-8" standalone="no"?><!DOCTYPE svg PUBLIC "-//W3C//DTD SVG 1.1//EN" "http://www.w3.org/Graphics/SVG/1.1/DTD/svg11.dtd"><svg width="100%" height="100%" viewBox="0 0 1750 567" version="1.1" xmlns="http://www.w3.org/2000/svg" xmlns:xlink="http://www.w3.org/1999/xlink" xml:space="preserve" xmlns:serif="http://www.serif.com/" style="fill-rule:evenodd;clip-rule:evenodd;stroke-linejoin:round;stroke-miterlimit:2;"><rect id="ArtBoard1" x="0" y="-4.541" width="1750.2" height="583.277" style="fill:none;"/><g><path d="M556.611,420.049c-25.475,0 -30.883,-14.621 -30.883,-30.246l0,-56.075l13.1,0l0,55.067c0,11.346 3.604,19.908 18.621,19.908c13.221,0 19.229,-5.791 19.229,-21.67l0,-53.305l12.858,0l0,52.296c0,22.679 -11.658,34.025 -32.925,34.025Z" style="fill:#fff;fill-rule:nonzero;"/><path d="M647.899,418.787l0,-37.334c0,-7.233 -1.984,-11.433 -8.634,-11.433c-8.75,0 -15.166,9.217 -15.166,20.767l0,28l-12.484,0l0,-57.984l11.9,0c0,3.038 -0.233,8.05 -0.816,11.317l0.116,0.117c3.384,-7.467 10.384,-12.6 20.184,-12.6c13.183,0 17.266,8.283 17.266,18.55l0,40.6l-12.366,0Z" style="fill:#fff;fill-rule:nonzero;"/><path d="M681.965,418.787l0,-57.984l12.484,0l0,57.984l-12.484,0Zm6.296,-66.617c-4.433,0 -8.046,-3.5 -8.046,-7.817c0,-4.316 3.613,-7.816 8.046,-7.816c4.321,0 7.938,3.383 7.938,7.816c0,4.317 -3.617,7.817 -7.938,7.817Z" style="fill:#fff;fill-rule:nonzero;"/><path d="M742.161,418.787l-12.716,0l-21.7,-57.984l13.766,0l10.85,30.684c1.4,3.971 2.684,8.05 3.734,11.9l0.116,0c0.934,-3.617 2.1,-7.7 3.384,-11.434l11.083,-31.15l13.417,0l-21.934,57.984Z" style="fill:#fff;fill-rule:nonzero;"/><path d="M798.745,368.853c-7,0 -11.9,5.134 -12.95,12.95l24.616,0c0.234,-7.933 -4.316,-12.95 -11.666,-12.95Zm23.8,21.7l-36.984,0c-0.35,13.421 5.6,19.488 17.15,19.488c5.95,0 12.134,-1.4 16.917,-3.738l1.167,9.917c-5.834,2.45 -12.95,3.733 -20.067,3.733c-18.083,0 -28,-9.333 -28,-29.75c0,-17.495 9.567,-30.566 26.483,-30.566c16.567,0 23.684,11.321 23.684,25.083c0,1.633 -0.117,3.621 -0.35,5.833Z" style="fill:#fff;fill-rule:nonzero;"/><path d="M870.145,371.887c-11.55,-2.1 -17.15,5.95 -17.15,23.333l0,23.567l-12.484,0l0,-57.984l11.9,0c0,3.267 -0.35,8.4 -1.166,12.834l0.233,0c2.567,-7.817 8.4,-15.05 19.25,-14l-0.583,12.25Z" style="fill:#fff;fill-rule:nonzero;"/><path d="M894.995,419.953c-4.317,0 -8.634,-0.466 -12.25,-1.166l0.35,-10.617c3.616,1.05 8.166,1.871 12.6,1.871c6.766,0 11.433,-2.921 11.433,-7.704c0,-11.667 -25.433,-4.667 -25.433,-24.734c0,-10.033 8.166,-17.966 23.916,-17.966c3.384,0 7.35,0.466 10.846,1.05l-0.346,10.15c-3.5,-1.05 -7.583,-1.634 -11.316,-1.634c-6.884,0 -10.267,2.805 -10.267,7.234c0,11.204 25.667,5.487 25.667,24.737c0,10.846 -9.684,18.779 -25.2,18.779Z" style="fill:#fff;fill-rule:nonzero;"/><path d="M938.04,418.787l0,-57.984l12.484,0l0,57.984l-12.484,0Zm6.309,-66.617c-4.438,0 -8.059,-3.5 -8.059,-7.817c0,-4.316 3.621,-7.816 8.059,-7.816c4.312,0 7.925,3.383 7.925,7.816c0,4.317 -3.613,7.817 -7.925,7.817Z" style="fill:#fff;fill-rule:nonzero;"/><path d="M993.111,419.816c-12.371,0 -16.096,-4.688 -16.096,-17.375l0,-30.979l-11.083,0l0,-9.492l11.083,0l0,-18.058l12.359,-3.313l0,21.371l15.283,0l0,9.492l-15.167,0l0,27.208c0,8.454 1.75,10.742 7.584,10.742c2.571,0 5.371,-0.342 7.583,-0.913l0,10.063c-3.383,0.683 -7.696,1.254 -11.546,1.254Z" style="fill:#fff;fill-rule:nonzero;"/><path d="M1054.01,349.837c-3.971,0 -7.121,-3.15 -7.121,-7.117c0,-3.846 3.15,-6.996 7.121,-6.996c3.85,0 7,3.15 7,6.996c0,3.967 -3.15,7.117 -7,7.117Zm-2.333,42.7c-18.2,0 -22.171,5.483 -22.171,10.5c0,4.316 3.037,7.116 7.937,7.116c8.521,0 14.234,-8.166 14.234,-16.445l0,-1.171Zm-20.646,-42.7c-3.975,0 -7,-3.15 -7,-7.117c0,-3.846 3.025,-6.996 7,-6.996c3.962,0 7.112,3.15 7.112,6.996c0,3.967 -3.15,7.117 -7.112,7.117Zm21.458,68.95c0,-3.734 0.121,-7.584 0.588,-10.734l-0.117,-0.112c-2.8,6.879 -10.033,12.012 -19.254,12.012c-9.913,0 -16.208,-5.6 -16.208,-14.816c0,-13.3 13.295,-21 34.179,-21l0,-3.734c0,-7.233 -3.038,-10.966 -12.134,-10.966c-5.366,0 -12.362,1.633 -17.27,4.671l-1.163,-10.617c5.721,-2.221 12.946,-3.854 20.417,-3.854c17.733,0 22.633,7.704 22.633,19.6l0,23.687c0,5.017 0.113,10.963 0.35,15.863l-12.021,0Z" style="fill:#fff;fill-rule:nonzero;"/><path d="M1104.64,419.816c-12.371,0 -16.1,-4.688 -16.1,-17.375l0,-30.979l-11.084,0l0,-9.492l11.084,0l0,-18.058l12.362,-3.313l0,21.371l15.283,0l0,9.492l-15.17,0l0,27.208c0,8.454 1.75,10.742 7.587,10.742c2.571,0 5.371,-0.342 7.583,-0.913l0,10.063c-3.383,0.683 -7.7,1.254 -11.545,1.254Z" style="fill:#fff;fill-rule:nonzero;"/><path d="M1233.57,418.787l0,-38.184l-38.329,0l0,38.184l-13.105,0l0,-85.059l13.105,0l0,35.159l38.329,0l0,-35.159l12.979,0l0,85.059l-12.979,0Z" style="fill:#fff;fill-rule:nonzero;"/><path d="M1303.66,392.537c-18.204,0 -22.167,5.483 -22.167,10.5c0,4.316 3.034,7.116 7.934,7.116c8.512,0 14.233,-8.166 14.233,-16.445l0,-1.171Zm0.817,26.25c0,-3.734 0.112,-7.584 0.583,-10.734l-0.121,-0.112c-2.8,6.879 -10.033,12.012 -19.246,12.012c-9.92,0 -16.22,-5.6 -16.22,-14.816c0,-13.3 13.3,-21 34.187,-21l0,-3.734c0,-7.233 -3.033,-10.966 -12.133,-10.966c-5.371,0 -12.371,1.633 -17.267,4.671l-1.167,-10.617c5.713,-2.221 12.95,-3.854 20.413,-3.854c17.733,0 22.637,7.704 22.637,19.6l0,23.687c0,5.017 0.117,10.963 0.35,15.863l-12.016,0Z" style="fill:#fff;fill-rule:nonzero;"/><path d="M1410.53,418.787l0,-36.984c0,-7.233 -1.75,-11.783 -8.4,-11.783c-7.471,0 -14.933,8.283 -14.933,21l0,27.767l-12.255,0l0,-37.1c0,-6.529 -1.4,-11.667 -8.4,-11.667c-7.933,0 -14.82,8.867 -14.82,21l0,27.767l-12.484,0l0,-57.984l11.909,0c0,3.038 -0.238,7.934 -0.825,11.317l0.237,0.117c3.388,-7.696 10.621,-12.6 19.596,-12.6c11.433,0 15.171,7.354 16.104,12.483c2.45,-5.6 8.863,-12.483 19.371,-12.483c11.083,0 17.258,5.954 17.258,19.137l0,40.013l-12.358,0Z" style="fill:#fff;fill-rule:nonzero;"/><path d="M1471.42,370.02c-9.334,0 -14.354,10.854 -14.354,20.65l0,17.971c2.57,0.812 5.483,1.162 9.104,1.162c9.912,0 16.683,-6.066 16.683,-21.7c0,-11.666 -3.621,-18.083 -11.433,-18.083Zm-6.184,49.7c-8.17,0 -14.35,-0.812 -20.658,-2.45l0,-83.646l12.488,0l0,26.713c0,3.383 -0.35,8.05 -1.05,11.083l0.233,0c3.037,-7.229 9.921,-11.783 18.433,-11.783c13.771,0 21.354,9.8 21.354,27.304c0,20.062 -11.554,32.779 -30.8,32.779Z" style="fill:#fff;fill-rule:nonzero;"/><path d="M1552.27,418.787c0,-3.029 0.238,-8.046 0.825,-11.317l-0.125,-0.117c-3.375,7.467 -10.383,12.6 -20.183,12.6c-13.183,0 -17.267,-8.283 -17.267,-18.55l0,-40.6l12.371,0l0,37.334c0,7.233 1.984,11.433 8.634,11.433c8.75,0 15.17,-9.217 15.17,-20.767l0,-28l12.484,0l0,57.984l-11.909,0Z" style="fill:#fff;fill-rule:nonzero;"/><path d="M1619.01,371.887c-11.55,-2.1 -17.154,5.95 -17.154,23.333l0,23.567l-12.483,0l0,-57.984l11.904,0c0,3.267 -0.35,8.4 -1.171,12.834l0.233,0c2.567,-7.817 8.4,-15.05 19.246,-14l-0.575,12.25Z" style="fill:#fff;fill-rule:nonzero;"/><path d="M1660.07,368.853c-8.284,0 -13.184,5.017 -13.184,12.134c0,7.583 4.671,12.021 13.071,12.021c7.813,0 12.946,-4.317 12.946,-11.905c0,-7.695 -4.783,-12.25 -12.833,-12.25Zm5.837,50.867l-10.85,0c-1.05,0 -2.221,0 -3.15,-0.117c-3.971,2.217 -6.421,5.721 -6.421,9.684c0,6.183 5.838,9.683 14.234,9.683c10.85,0 16.92,-4.671 16.92,-10.967c0,-5.016 -3.387,-8.283 -10.733,-8.283Zm-8.171,28.933c-15.162,0 -24.612,-5.837 -24.612,-17.033c0,-6.533 4.316,-12.017 9.329,-14.583c-3.5,-1.75 -5.713,-4.784 -5.713,-8.634c0,-4.2 2.563,-8.166 6.646,-9.916c-5.712,-3.15 -8.633,-9.096 -8.633,-16.334c0,-12.25 9.333,-22.516 25.904,-22.516c3.5,0 6.413,0.466 9.563,1.166l19.604,0l0,9.805l-8.871,0c2.45,1.979 3.971,5.479 3.971,9.679c0,12.6 -8.754,21.466 -25.088,21.466c-2.216,0 -4.9,-0.229 -6.65,-0.579c-2.329,0.929 -3.379,2.679 -3.379,4.313c0,2.916 2.567,4.083 9.563,4.083l9.92,0c12.6,0 19.713,5.95 19.713,16.804c0,12.363 -12.6,22.279 -31.267,22.279Z" style="fill:#fff;fill-rule:nonzero;"/><rect x="56.303" y="17.612" width="399.858" height="399.858" style="fill:#ed1c24;"/><path d="M313.365,254.62l5.713,0l-2.858,-4.946l2.858,-4.95l-5.713,0l-2.858,-4.937l-2.854,4.937l-5.713,0l2.855,4.95l-2.855,4.946l5.713,0l2.854,4.95l2.858,-4.95Z" style="fill:#fff;fill-rule:nonzero;"/><path d="M402.753,254.62l5.712,0l-2.854,-4.946l2.854,-4.95l-5.712,0l-2.854,-4.937l-2.859,4.937l-5.712,0l2.858,4.95l-2.858,4.946l5.712,0l2.859,4.95l2.854,-4.95Z" style="fill:#fff;fill-rule:nonzero;"/><path d="M339.503,256.908l0,1.066l-6.254,0l0,7.3l7.046,0l0,45.646l-16.246,0l0,-44.621l-27.079,0l-0.005,44.621l-8.85,0l0,7.575l134.175,0l0,-7.575l-8.854,0l0,-44.621l-27.079,0l0,44.621l-16.246,0l0,-45.646l7.046,0l0,-7.3l-6.254,0c-0.396,-7.854 -4.3,-14.566 -12.496,-16.383l0,-7.892l5.867,0l0,-5.479l-5.867,0l0,-6.7l-6.408,0l0,6.7l-5.867,0l0,5.479l5.867,0l0,7.909c-7.238,1.687 -12.496,7.683 -12.496,15.3Z" style="fill:#fff;fill-rule:nonzero;"/><path d="M355.203,349.812c-9.892,0 -17.908,8.012 -17.908,17.9l-0.317,29.991l-56.308,0c8.366,-23.229 13.92,-46.6 15.645,-71.379l117.775,0c1.725,24.779 7.284,48.15 15.646,71.379l-56.308,0l-0.317,-29.991c0,-9.888 -8.021,-17.9 -17.908,-17.9Z" style="fill:#fff;fill-rule:nonzero;"/><path d="M230.39,148.178l-16.037,0l0,-45l-46.879,0l0,10.392c0,22.567 -13.354,36.092 -39.434,36.092c-26.775,0 -39.433,-12.459 -39.433,-35.642l0,-66.096l16.192,0l0,62.825c0,16.146 5.633,25.546 23.391,25.546c17.484,0 23.392,-9.4 23.392,-25.546l0,-62.825l15.892,0l0,41.442l46.879,0l0,-41.442l16.037,0l0,41.442l47.184,0l0,-41.442l16.037,0l0,100.254l-16.037,0l0,-45l-47.184,0l0,45Z" style="fill:#fff;fill-rule:nonzero;"/><path d="M70.32,498.324c-2.263,0 -4.375,0.075 -5.959,0.225l0,34.309c1.359,0.225 3.396,0.379 5.354,0.379c9.58,0 16.517,-5.429 16.517,-17.496c0,-10.933 -4.3,-17.417 -15.912,-17.417Zm-1.584,43.279c-5.279,0 -9.879,-0.22 -14.175,-0.379l0,-50.741c3.996,-0.15 10.179,-0.38 16.438,-0.38c15.758,0 25.787,7.017 25.787,24.888c0,17.492 -11.462,26.612 -28.05,26.612Z" style="fill:#fff;fill-rule:nonzero;"/><path d="M105.615,541.303l0,-50.9l27.675,0l0,8.221l-17.87,0l0,12.521l16.966,0l0,7.992l-16.966,0l0,13.796l17.87,0l0,8.37l-27.675,0Z" style="fill:#fff;fill-rule:nonzero;"/><path d="M157.199,498.099c-1.429,0 -2.867,0.071 -3.842,0.225l0,14.704c0.675,0.071 2.033,0.15 3.542,0.15c5.879,0 9.5,-3.016 9.5,-7.766c0,-4.9 -3.017,-7.313 -9.2,-7.313Zm10.708,43.204l-14.175,-21.037l-0.375,0l0,21.037l-9.808,0l0,-50.9c4,-0.22 8.75,-0.3 14.633,-0.3c11.233,0 18.471,3.921 18.471,14.325c0,7.542 -5.279,12.975 -12.967,14.18c1.429,1.883 2.863,3.845 4.146,5.579l12.217,17.116l-12.142,0Z" style="fill:#fff;fill-rule:nonzero;"/><path d="M225.299,498.916l0,13.054l16.354,0l0,8.029l-16.354,0l0,21.304l-9.754,0l0,-50.637l27.083,0l0,8.25l-17.329,0Z" style="fill:#fff;fill-rule:nonzero;"/><path d="M272.403,498.616c-6.979,0 -13.429,5.55 -13.429,16.954c0,10.725 4.2,17.704 13.279,17.704c6.6,0 13.654,-5.1 13.654,-17.25c0,-11.258 -4.8,-17.408 -13.504,-17.408Zm-0.825,43.512c-15.454,0 -23.033,-9.825 -23.033,-25.508c0,-16.729 11.179,-26.783 24.758,-26.783c13.504,0 23.029,8.104 23.029,25.433c0,16.733 -11.025,26.858 -24.754,26.858Z" style="fill:#fff;fill-rule:nonzero;"/><path d="M318.749,498.316c-1.425,0 -2.85,0.075 -3.825,0.225l0,14.629c0.675,0.075 2.025,0.15 3.525,0.15c5.85,0 9.454,-3 9.454,-7.725c0,-4.879 -3.004,-7.279 -9.154,-7.279Zm10.654,42.987l-14.104,-20.929l-0.375,0l0,20.929l-9.754,0l0,-50.637c3.979,-0.229 8.704,-0.304 14.554,-0.304c11.179,0 18.379,3.904 18.379,14.254c0,7.504 -5.25,12.904 -12.9,14.104c1.421,1.875 2.85,3.829 4.125,5.554l12.154,17.029l-12.079,0Z" style="fill:#fff;fill-rule:nonzero;"/><path d="M358.045,542.128c-3.6,0 -7.2,-0.375 -10.35,-1.2l0.6,-9.079c2.85,0.979 6.9,1.8 10.575,1.8c4.954,0 8.779,-2.021 8.779,-6.675c0,-9.679 -21.234,-5.25 -21.234,-21.904c0,-9.004 7.13,-15.233 19.284,-15.233c2.85,0 6.15,0.375 9.154,0.9l-0.525,8.554c-2.854,-0.825 -6.004,-1.35 -9.079,-1.35c-5.629,0 -8.479,2.55 -8.479,6.15c0,9.079 21.308,5.704 21.308,21.533c0,9.525 -7.579,16.504 -20.033,16.504Z" style="fill:#fff;fill-rule:nonzero;"/><path d="M408.524,541.978c-17.704,0 -23.409,-11.779 -23.409,-24.379c0,-16.058 8.405,-27.312 25.359,-27.312c3.6,0 7.429,0.45 10.729,1.35l-1.05,8.854c-3.304,-0.975 -6.754,-1.5 -10.204,-1.5c-9.454,0 -14.104,7.129 -14.104,16.954c0,11.029 4.575,17.179 14.779,17.179c3.075,0 7.204,-0.9 9.829,-2.1l1.125,8.704c-3.75,1.35 -8.329,2.25 -13.054,2.25Z" style="fill:#fff;fill-rule:nonzero;"/><path d="M462.824,541.303l0,-21.979l-21.454,0l0,21.979l-9.755,0l0,-50.637l9.755,0l0,20.254l21.454,0l0,-20.254l9.758,0l0,50.637l-9.758,0Z" style="fill:#fff;fill-rule:nonzero;"/><path d="M505.124,542.128c-15.984,0 -19.584,-8.704 -19.584,-18.379l0,-33.083l9.755,0l0,32.483c0,6.375 2.1,10.879 10.504,10.879c7.5,0 10.654,-3.154 10.654,-11.779l0,-31.583l9.675,0l0,30.979c0,13.879 -7.654,20.483 -21.004,20.483Z" style="fill:#fff;fill-rule:nonzero;"/><path d="M568.124,541.303l-14.854,-25.583c-2.25,-3.829 -3.975,-7.575 -5.475,-10.879c0.3,4.354 0.445,12.304 0.445,18.383l0,18.079l-9.45,0l0,-50.637l12.68,0l14.104,24.158c2.325,3.896 4.35,8.1 6.225,11.925c-0.375,-5.104 -0.525,-14.104 -0.525,-20.329l0,-15.754l9.454,0l0,50.637l-12.604,0Z" style="fill:#fff;fill-rule:nonzero;"/><path d="M630.978,501.166c-4.05,-1.575 -8.704,-2.55 -13.429,-2.55c-9.979,0 -17.179,6.304 -17.179,17.629c0,10.729 5.85,17.029 16.129,17.029c2.4,0 4.5,-0.3 6.45,-0.9l0,-17.629l9.754,0l0,24.158c-5.029,2.025 -11.254,3.15 -17.329,3.15c-16.054,0 -25.584,-9.454 -25.584,-24.908c0,-15.904 10.805,-27.233 28.359,-27.233c5.025,0 9.979,0.904 14.329,2.179l-1.5,9.075Z" style="fill:#fff;fill-rule:nonzero;"/><rect x="688.199" y="488.758" width="6.938" height="58.808" style="fill:#fff;"/><path d="M765.553,498.541c-2.25,0 -4.35,0.075 -5.925,0.225l0,34.133c1.35,0.225 3.375,0.375 5.325,0.375c9.529,0 16.433,-5.4 16.433,-17.4c0,-10.883 -4.279,-17.333 -15.833,-17.333Zm-1.575,43.062c-5.25,0 -9.829,-0.225 -14.104,-0.375l0,-50.491c3.979,-0.15 10.129,-0.375 16.354,-0.375c15.683,0 25.658,6.979 25.658,24.758c0,17.408 -11.404,26.483 -27.908,26.483Z" style="fill:#fff;fill-rule:nonzero;"/><path d="M800.649,541.303l0,-50.637l27.533,0l0,8.175l-17.779,0l0,12.454l16.879,0l0,7.95l-16.879,0l0,13.729l17.779,0l0,8.329l-27.533,0Z" style="fill:#fff;fill-rule:nonzero;"/><path d="M851.953,498.316c-1.425,0 -2.854,0.075 -3.825,0.225l0,14.629c0.675,0.075 2.025,0.15 3.525,0.15c5.85,0 9.45,-3 9.45,-7.725c0,-4.879 -3,-7.279 -9.15,-7.279Zm10.654,42.987l-14.108,-20.929l-0.371,0l0,20.929l-9.754,0l0,-50.637c3.975,-0.229 8.704,-0.304 14.554,-0.304c11.179,0 18.379,3.904 18.379,14.254c0,7.504 -5.25,12.904 -12.904,14.104c1.429,1.875 2.85,3.829 4.129,5.554l12.154,17.029l-12.079,0Z" style="fill:#fff;fill-rule:nonzero;"/><path d="M909.999,541.303l0,-50.637l9.75,0l0,42.083l16.429,0l0,8.554l-26.179,0Z" style="fill:#fff;fill-rule:nonzero;"/><path d="M943.299,541.303l0,-50.637l27.529,0l0,8.175l-17.779,0l0,12.454l16.883,0l0,7.95l-16.883,0l0,13.729l17.779,0l0,8.329l-27.529,0Z" style="fill:#fff;fill-rule:nonzero;"/><path d="M1012.61,541.303l0,-21.979l-21.462,0l0,21.979l-9.75,0l0,-50.637l9.75,0l0,20.254l21.462,0l0,-20.254l9.75,0l0,50.637l-9.75,0Z" style="fill:#fff;fill-rule:nonzero;"/><path d="M1049.05,498.316c-1.425,0 -2.85,0.075 -3.825,0.225l0,14.629c0.675,0.075 2.025,0.15 3.521,0.15c5.854,0 9.458,-3 9.458,-7.725c0,-4.879 -3.004,-7.279 -9.154,-7.279Zm10.65,42.987l-14.1,-20.929l-0.375,0l0,20.929l-9.75,0l0,-50.637c3.971,-0.229 8.7,-0.304 14.55,-0.304c11.183,0 18.383,3.904 18.383,14.254c0,7.504 -5.254,12.904 -12.904,14.104c1.421,1.875 2.846,3.829 4.125,5.554l12.15,17.029l-12.079,0Z" style="fill:#fff;fill-rule:nonzero;"/><path d="M1079.65,541.303l0,-50.637l27.529,0l0,8.175l-17.783,0l0,12.454l16.879,0l0,7.95l-16.879,0l0,13.729l17.783,0l0,8.329l-27.529,0Z" style="fill:#fff;fill-rule:nonzero;"/><rect x="1161.85" y="488.758" width="6.933" height="58.808" style="fill:#fff;"/><path d="M1237.8,498.541c-2.254,0 -4.354,0.075 -5.934,0.225l0,34.133c1.35,0.225 3.375,0.375 5.33,0.375c9.529,0 16.429,-5.4 16.429,-17.4c0,-10.883 -4.279,-17.333 -15.825,-17.333Zm-1.579,43.062c-5.25,0 -9.825,-0.225 -14.105,-0.375l0,-50.491c3.98,-0.15 10.134,-0.375 16.359,-0.375c15.671,0 25.658,6.979 25.658,24.758c0,17.408 -11.408,26.483 -27.912,26.483Z" style="fill:#fff;fill-rule:nonzero;"/><path d="M1272.89,541.303l0,-50.637l27.534,0l0,8.175l-17.784,0l0,12.454l16.888,0l0,7.95l-16.888,0l0,13.729l17.784,0l0,8.329l-27.534,0Z" style="fill:#fff;fill-rule:nonzero;"/><path d="M1324.2,498.316c-1.434,0 -2.859,0.075 -3.834,0.225l0,14.629c0.675,0.075 2.025,0.15 3.534,0.15c5.85,0 9.446,-3 9.446,-7.725c0,-4.879 -2.996,-7.279 -9.146,-7.279Zm10.654,42.987l-14.104,-20.929l-0.384,0l0,20.929l-9.75,0l0,-50.637c3.98,-0.229 8.7,-0.304 14.55,-0.304c11.184,0 18.384,3.904 18.384,14.254c0,7.504 -5.246,12.904 -12.904,14.104c1.433,1.875 2.854,3.829 4.125,5.554l12.158,17.029l-12.075,0Z" style="fill:#fff;fill-rule:nonzero;"/><path d="M1396.27,518.949c-0.75,0 -3.225,0 -4.284,0.071l0,14.183c1.209,0.15 3.079,0.296 5.334,0.296c6.379,0 9.6,-3 9.6,-7.575c0,-4.954 -4.271,-6.975 -10.65,-6.975Zm1.425,-20.708c-2.03,0 -3.975,0.075 -5.709,0.15l0,13.204c1.209,0.075 2.404,0.075 3.984,0.075c6.679,0 10.129,-2.704 10.129,-7.204c0,-3.75 -2.254,-6.225 -8.404,-6.225Zm-0.68,43.212c-3.075,0 -8.395,-0.15 -14.775,-0.15l0,-50.566c4.28,-0.221 10.88,-0.375 17.105,-0.375c10.954,0 17.033,4.429 17.033,12.529c0,5.025 -3.229,9.454 -8.033,11.329l0,0.15c6.008,1.275 9,6.225 9,11.329c0,7.354 -5.021,15.754 -20.33,15.754Z" style="fill:#fff;fill-rule:nonzero;"/><rect x="1427.46" y="490.666" width="9.75" height="50.638" style="fill:#fff;"/><path d="M1450.27,541.303l0,-50.637l9.75,0l0,42.083l16.43,0l0,8.554l-26.18,0Z" style="fill:#fff;fill-rule:nonzero;"/><path d="M1499.24,498.541c-2.245,0 -4.345,0.075 -5.925,0.225l0,34.133c1.35,0.225 3.375,0.375 5.33,0.375c9.52,0 16.425,-5.4 16.425,-17.4c0,-10.883 -4.275,-17.333 -15.83,-17.333Zm-1.57,43.062c-5.259,0 -9.834,-0.225 -14.105,-0.375l0,-50.491c3.971,-0.15 10.125,-0.375 16.35,-0.375c15.68,0 25.659,6.979 25.659,24.758c0,17.408 -11.4,26.483 -27.904,26.483Z" style="fill:#fff;fill-rule:nonzero;"/><path d="M1554.3,542.128c-15.984,0 -19.584,-8.704 -19.584,-18.379l0,-33.083l9.75,0l0,32.483c0,6.375 2.1,10.879 10.509,10.879c7.495,0 10.65,-3.154 10.65,-11.779l0,-31.583l9.679,0l0,30.979c0,13.879 -7.65,20.483 -21.004,20.483Z" style="fill:#fff;fill-rule:nonzero;"/><path d="M1617.29,541.303l-14.862,-25.583c-2.246,-3.829 -3.971,-7.575 -5.475,-10.879c0.3,4.354 0.454,12.304 0.454,18.383l0,18.079l-9.454,0l0,-50.637l12.679,0l14.1,24.158c2.329,3.896 4.354,8.1 6.229,11.925c-0.375,-5.104 -0.521,-14.104 -0.521,-20.329l0,-15.754l9.446,0l0,50.637l-12.596,0Z" style="fill:#fff;fill-rule:nonzero;"/><path d="M1680.14,501.166c-4.054,-1.575 -8.7,-2.55 -13.429,-2.55c-9.975,0 -17.179,6.304 -17.179,17.629c0,10.729 5.85,17.029 16.129,17.029c2.4,0 4.5,-0.3 6.454,-0.9l0,-17.629l9.75,0l0,24.158c-5.02,2.025 -11.254,3.15 -17.325,3.15c-16.058,0 -25.587,-9.454 -25.587,-24.908c0,-15.904 10.808,-27.233 28.362,-27.233c5.021,0 9.975,0.904 14.33,2.179l-1.505,9.075Z" style="fill:#fff;fill-rule:nonzero;"/></g></svg>